<?xml version="1.0" encoding="UTF-8"?>
<svg enable-background="new" version="1.1" viewBox="0 0 1920 1080" xmlns="http://www.w3.org/2000/svg" xmlns:xlink="http://www.w3.org/1999/xlink">
<defs>
<radialGradient id="a" cx="451.59" cy="293.53" r="321.78" gradientTransform="matrix(1 0 0 .79839 0 59.177)" gradientUnits="userSpaceOnUse">
<stop stop-color="#204a87" offset="0"/>
<stop stop-color="#204a87" stop-opacity="0" offset="1"/>
</radialGradient>
</defs>
<rect y="-2.0981e-5" width="1920" height="1080" color="#000000" enable-background="accumulate" fill="#0d1a2e"/>
<g fill="url(#a)" stroke="url(#a)" stroke-width="2">
<g transform="scale(.99999 1)">
<path d="m202.85 386.91v11.95c-7e-5 31.185 17.982 55.882 53.947 74.092 10.243 2.9592 20.714 4.894 31.412 5.8044 38.468 6e-5 65.897-20.259 82.286-60.776l3.4144-22.193v-4.4387c-2.5e-4 -40.289-21.738-67.832-65.215-82.628l-22.535-2.3901c-37.331 2.3e-4 -64.418 20.6-81.262 61.8zm78.189-151.26h12.975c50.533 3e-4 93.326 25.153 128.38 75.458 15.706 27.77 23.559 54.858 23.559 81.262-3.2e-4 52.126-23.787 95.716-71.36 130.77-27.088 17.527-55.199 26.291-84.335 26.291h-6.4873c-50.078-1e-5 -93.212-24.811-129.4-74.433-15.706-28.225-23.559-55.768-23.559-82.628 0-35.282 12.633-69.767 37.9-103.46l139.99-241.04c10.243-6.1454 19.12-9.2183 26.632-9.2188 17.072 5.01e-4 28.225 11.723 33.461 35.168-2.3e-4 9.5607-10.812 31.413-32.437 65.556z"/>
<path d="m618.72 37.622c42.338 5.02e-4 78.189 18.666 107.55 55.996 16.844 22.991 25.266 48.257 25.266 75.799v6.4873c-3e-4 37.103-13.43 67.833-40.29 92.188 40.745 29.591 61.117 70.792 61.117 123.6-3.2e-4 52.354-23.901 96.172-71.702 131.45-27.088 17.527-55.313 26.291-84.676 26.291h-6.4873c-50.305-1e-5 -93.668-24.811-130.09-74.433-15.706-28.453-23.559-56.223-23.559-83.311 0-54.63 21.852-97.309 65.556-128.04-14.113-10.926-24.697-30.501-31.754-58.727-2.7315-7.056-4.0973-16.73-4.0972-29.022v-6.4873c-3e-5 -46.89 22.421-84.676 67.263-113.36 22.307-12.291 44.273-18.437 65.897-18.438zm-62.14 137.6c-1e-4 27.315 16.616 46.55 49.85 57.703l12.633 1.3658c28.908 3e-4 48.712-15.478 59.41-46.436l2.3901-16.389c-2.2e-4 -30.274-16.275-50.305-48.826-60.093l-15.023-1.3658c-27.998 4.3e-4 -47.46 15.024-58.386 45.07zm-29.705 216.13c-7e-5 40.29 21.51 68.288 64.532 83.994 5.2352 2.0487 13.43 3.073 24.583 3.0729 38.013 6e-5 65.328-21.169 81.945-63.507l2.3901-17.413v-12.292c-2.5e-4 -32.323-19.007-57.475-57.02-75.458-10.471-3.1865-20.031-4.7799-28.681-4.7801-41.428 2.4e-4 -69.54 21.169-84.335 63.507z"/>
</g>
<g transform="matrix(-1.9043 -.54977 .54978 -1.9043 810.42 584.9)">
<path d="m202.85 386.91v11.95c-7e-5 31.185 17.982 55.882 53.947 74.092 10.243 2.9592 20.714 4.894 31.412 5.8044 38.468 6e-5 65.897-20.259 82.286-60.776l3.4144-22.193v-4.4387c-2.5e-4 -40.289-21.738-67.832-65.215-82.628l-22.535-2.3901c-37.331 2.3e-4 -64.418 20.6-81.262 61.8zm78.189-151.26h12.975c50.533 3e-4 93.326 25.153 128.38 75.458 15.706 27.77 23.559 54.858 23.559 81.262-3.2e-4 52.126-23.787 95.716-71.36 130.77-27.088 17.527-55.199 26.291-84.335 26.291h-6.4873c-50.078-1e-5 -93.212-24.811-129.4-74.433-15.706-28.225-23.559-55.768-23.559-82.628 0-35.282 12.633-69.767 37.9-103.46l139.99-241.04c10.243-6.1454 19.12-9.2183 26.632-9.2188 17.072 5.01e-4 28.225 11.723 33.461 35.168-2.3e-4 9.5607-10.812 31.413-32.437 65.556z"/>
<path d="m618.72 37.622c42.338 5.02e-4 78.189 18.666 107.55 55.996 16.844 22.991 25.266 48.257 25.266 75.799v6.4873c-3e-4 37.103-13.43 67.833-40.29 92.188 40.745 29.591 61.117 70.792 61.117 123.6-3.2e-4 52.354-23.901 96.172-71.702 131.45-27.088 17.527-55.313 26.291-84.676 26.291h-6.4873c-50.305-1e-5 -93.668-24.811-130.09-74.433-15.706-28.453-23.559-56.223-23.559-83.311 0-54.63 21.852-97.309 65.556-128.04-14.113-10.926-24.697-30.501-31.754-58.727-2.7315-7.056-4.0973-16.73-4.0972-29.022v-6.4873c-3e-5 -46.89 22.421-84.676 67.263-113.36 22.307-12.291 44.273-18.437 65.897-18.438zm-62.14 137.6c-1e-4 27.315 16.616 46.55 49.85 57.703l12.633 1.3658c28.908 3e-4 48.712-15.478 59.41-46.436l2.3901-16.389c-2.2e-4 -30.274-16.275-50.305-48.826-60.093l-15.023-1.3658c-27.998 4.3e-4 -47.46 15.024-58.386 45.07zm-29.705 216.13c-7e-5 40.29 21.51 68.288 64.532 83.994 5.2352 2.0487 13.43 3.073 24.583 3.0729 38.013 6e-5 65.328-21.169 81.945-63.507l2.3901-17.413v-12.292c-2.5e-4 -32.323-19.007-57.475-57.02-75.458-10.471-3.1865-20.031-4.7799-28.681-4.7801-41.428 2.4e-4 -69.54 21.169-84.335 63.507z"/>
</g>
<g transform="matrix(-1.0302 -.71853 .71854 -1.0302 614.66 930.07)">
<path d="m202.85 386.91v11.95c-7e-5 31.185 17.982 55.882 53.947 74.092 10.243 2.9592 20.714 4.894 31.412 5.8044 38.468 6e-5 65.897-20.259 82.286-60.776l3.4144-22.193v-4.4387c-2.5e-4 -40.289-21.738-67.832-65.215-82.628l-22.535-2.3901c-37.331 2.3e-4 -64.418 20.6-81.262 61.8zm78.189-151.26h12.975c50.533 3e-4 93.326 25.153 128.38 75.458 15.706 27.77 23.559 54.858 23.559 81.262-3.2e-4 52.126-23.787 95.716-71.36 130.77-27.088 17.527-55.199 26.291-84.335 26.291h-6.4873c-50.078-1e-5 -93.212-24.811-129.4-74.433-15.706-28.225-23.559-55.768-23.559-82.628 0-35.282 12.633-69.767 37.9-103.46l139.99-241.04c10.243-6.1454 19.12-9.2183 26.632-9.2188 17.072 5.01e-4 28.225 11.723 33.461 35.168-2.3e-4 9.5607-10.812 31.413-32.437 65.556z"/>
<path d="m618.72 37.622c42.338 5.02e-4 78.189 18.666 107.55 55.996 16.844 22.991 25.266 48.257 25.266 75.799v6.4873c-3e-4 37.103-13.43 67.833-40.29 92.188 40.745 29.591 61.117 70.792 61.117 123.6-3.2e-4 52.354-23.901 96.172-71.702 131.45-27.088 17.527-55.313 26.291-84.676 26.291h-6.4873c-50.305-1e-5 -93.668-24.811-130.09-74.433-15.706-28.453-23.559-56.223-23.559-83.311 0-54.63 21.852-97.309 65.556-128.04-14.113-10.926-24.697-30.501-31.754-58.727-2.7315-7.056-4.0973-16.73-4.0972-29.022v-6.4873c-3e-5 -46.89 22.421-84.676 67.263-113.36 22.307-12.291 44.273-18.437 65.897-18.438zm-62.14 137.6c-1e-4 27.315 16.616 46.55 49.85 57.703l12.633 1.3658c28.908 3e-4 48.712-15.478 59.41-46.436l2.3901-16.389c-2.2e-4 -30.274-16.275-50.305-48.826-60.093l-15.023-1.3658c-27.998 4.3e-4 -47.46 15.024-58.386 45.07zm-29.705 216.13c-7e-5 40.29 21.51 68.288 64.532 83.994 5.2352 2.0487 13.43 3.073 24.583 3.0729 38.013 6e-5 65.328-21.169 81.945-63.507l2.3901-17.413v-12.292c-2.5e-4 -32.323-19.007-57.475-57.02-75.458-10.471-3.1865-20.031-4.7799-28.681-4.7801-41.428 2.4e-4 -69.54 21.169-84.335 63.507z"/>
</g>
<g transform="matrix(-.51076 .44859 -.4486 -.51077 505.1 704.85)" opacity=".81841">
<path d="m202.85 386.91v11.95c-7e-5 31.185 17.982 55.882 53.947 74.092 10.243 2.9592 20.714 4.894 31.412 5.8044 38.468 6e-5 65.897-20.259 82.286-60.776l3.4144-22.193v-4.4387c-2.5e-4 -40.289-21.738-67.832-65.215-82.628l-22.535-2.3901c-37.331 2.3e-4 -64.418 20.6-81.262 61.8zm78.189-151.26h12.975c50.533 3e-4 93.326 25.153 128.38 75.458 15.706 27.77 23.559 54.858 23.559 81.262-3.2e-4 52.126-23.787 95.716-71.36 130.77-27.088 17.527-55.199 26.291-84.335 26.291h-6.4873c-50.078-1e-5 -93.212-24.811-129.4-74.433-15.706-28.225-23.559-55.768-23.559-82.628 0-35.282 12.633-69.767 37.9-103.46l139.99-241.04c10.243-6.1454 19.12-9.2183 26.632-9.2188 17.072 5.01e-4 28.225 11.723 33.461 35.168-2.3e-4 9.5607-10.812 31.413-32.437 65.556z"/>
<path d="m618.72 37.622c42.338 5.02e-4 78.189 18.666 107.55 55.996 16.844 22.991 25.266 48.257 25.266 75.799v6.4873c-3e-4 37.103-13.43 67.833-40.29 92.188 40.745 29.591 61.117 70.792 61.117 123.6-3.2e-4 52.354-23.901 96.172-71.702 131.45-27.088 17.527-55.313 26.291-84.676 26.291h-6.4873c-50.305-1e-5 -93.668-24.811-130.09-74.433-15.706-28.453-23.559-56.223-23.559-83.311 0-54.63 21.852-97.309 65.556-128.04-14.113-10.926-24.697-30.501-31.754-58.727-2.7315-7.056-4.0973-16.73-4.0972-29.022v-6.4873c-3e-5 -46.89 22.421-84.676 67.263-113.36 22.307-12.291 44.273-18.437 65.897-18.438zm-62.14 137.6c-1e-4 27.315 16.616 46.55 49.85 57.703l12.633 1.3658c28.908 3e-4 48.712-15.478 59.41-46.436l2.3901-16.389c-2.2e-4 -30.274-16.275-50.305-48.826-60.093l-15.023-1.3658c-27.998 4.3e-4 -47.46 15.024-58.386 45.07zm-29.705 216.13c-7e-5 40.29 21.51 68.288 64.532 83.994 5.2352 2.0487 13.43 3.073 24.583 3.0729 38.013 6e-5 65.328-21.169 81.945-63.507l2.3901-17.413v-12.292c-2.5e-4 -32.323-19.007-57.475-57.02-75.458-10.471-3.1865-20.031-4.7799-28.681-4.7801-41.428 2.4e-4 -69.54 21.169-84.335 63.507z"/>
</g>
<g transform="matrix(-1.1709 -.41264 .41265 -1.171 745.95 1274.5)" opacity=".5836">
<path d="m202.85 386.91v11.95c-7e-5 31.185 17.982 55.882 53.947 74.092 10.243 2.9592 20.714 4.894 31.412 5.8044 38.468 6e-5 65.897-20.259 82.286-60.776l3.4144-22.193v-4.4387c-2.5e-4 -40.289-21.738-67.832-65.215-82.628l-22.535-2.3901c-37.331 2.3e-4 -64.418 20.6-81.262 61.8zm78.189-151.26h12.975c50.533 3e-4 93.326 25.153 128.38 75.458 15.706 27.77 23.559 54.858 23.559 81.262-3.2e-4 52.126-23.787 95.716-71.36 130.77-27.088 17.527-55.199 26.291-84.335 26.291h-6.4873c-50.078-1e-5 -93.212-24.811-129.4-74.433-15.706-28.225-23.559-55.768-23.559-82.628 0-35.282 12.633-69.767 37.9-103.46l139.99-241.04c10.243-6.1454 19.12-9.2183 26.632-9.2188 17.072 5.01e-4 28.225 11.723 33.461 35.168-2.3e-4 9.5607-10.812 31.413-32.437 65.556z"/>
<path d="m618.72 37.622c42.338 5.02e-4 78.189 18.666 107.55 55.996 16.844 22.991 25.266 48.257 25.266 75.799v6.4873c-3e-4 37.103-13.43 67.833-40.29 92.188 40.745 29.591 61.117 70.792 61.117 123.6-3.2e-4 52.354-23.901 96.172-71.702 131.45-27.088 17.527-55.313 26.291-84.676 26.291h-6.4873c-50.305-1e-5 -93.668-24.811-130.09-74.433-15.706-28.453-23.559-56.223-23.559-83.311 0-54.63 21.852-97.309 65.556-128.04-14.113-10.926-24.697-30.501-31.754-58.727-2.7315-7.056-4.0973-16.73-4.0972-29.022v-6.4873c-3e-5 -46.89 22.421-84.676 67.263-113.36 22.307-12.291 44.273-18.437 65.897-18.438zm-62.14 137.6c-1e-4 27.315 16.616 46.55 49.85 57.703l12.633 1.3658c28.908 3e-4 48.712-15.478 59.41-46.436l2.3901-16.389c-2.2e-4 -30.274-16.275-50.305-48.826-60.093l-15.023-1.3658c-27.998 4.3e-4 -47.46 15.024-58.386 45.07zm-29.705 216.13c-7e-5 40.29 21.51 68.288 64.532 83.994 5.2352 2.0487 13.43 3.073 24.583 3.0729 38.013 6e-5 65.328-21.169 81.945-63.507l2.3901-17.413v-12.292c-2.5e-4 -32.323-19.007-57.475-57.02-75.458-10.471-3.1865-20.031-4.7799-28.681-4.7801-41.428 2.4e-4 -69.54 21.169-84.335 63.507z"/>
</g>
<g transform="matrix(-.26965 -1.326 1.326 -.26965 398.93 618.19)" opacity=".38962">
<path d="m202.85 386.91v11.95c-7e-5 31.185 17.982 55.882 53.947 74.092 10.243 2.9592 20.714 4.894 31.412 5.8044 38.468 6e-5 65.897-20.259 82.286-60.776l3.4144-22.193v-4.4387c-2.5e-4 -40.289-21.738-67.832-65.215-82.628l-22.535-2.3901c-37.331 2.3e-4 -64.418 20.6-81.262 61.8zm78.189-151.26h12.975c50.533 3e-4 93.326 25.153 128.38 75.458 15.706 27.77 23.559 54.858 23.559 81.262-3.2e-4 52.126-23.787 95.716-71.36 130.77-27.088 17.527-55.199 26.291-84.335 26.291h-6.4873c-50.078-1e-5 -93.212-24.811-129.4-74.433-15.706-28.225-23.559-55.768-23.559-82.628 0-35.282 12.633-69.767 37.9-103.46l139.99-241.04c10.243-6.1454 19.12-9.2183 26.632-9.2188 17.072 5.01e-4 28.225 11.723 33.461 35.168-2.3e-4 9.5607-10.812 31.413-32.437 65.556z"/>
<path d="m618.72 37.622c42.338 5.02e-4 78.189 18.666 107.55 55.996 16.844 22.991 25.266 48.257 25.266 75.799v6.4873c-3e-4 37.103-13.43 67.833-40.29 92.188 40.745 29.591 61.117 70.792 61.117 123.6-3.2e-4 52.354-23.901 96.172-71.702 131.45-27.088 17.527-55.313 26.291-84.676 26.291h-6.4873c-50.305-1e-5 -93.668-24.811-130.09-74.433-15.706-28.453-23.559-56.223-23.559-83.311 0-54.63 21.852-97.309 65.556-128.04-14.113-10.926-24.697-30.501-31.754-58.727-2.7315-7.056-4.0973-16.73-4.0972-29.022v-6.4873c-3e-5 -46.89 22.421-84.676 67.263-113.36 22.307-12.291 44.273-18.437 65.897-18.438zm-62.14 137.6c-1e-4 27.315 16.616 46.55 49.85 57.703l12.633 1.3658c28.908 3e-4 48.712-15.478 59.41-46.436l2.3901-16.389c-2.2e-4 -30.274-16.275-50.305-48.826-60.093l-15.023-1.3658c-27.998 4.3e-4 -47.46 15.024-58.386 45.07zm-29.705 216.13c-7e-5 40.29 21.51 68.288 64.532 83.994 5.2352 2.0487 13.43 3.073 24.583 3.0729 38.013 6e-5 65.328-21.169 81.945-63.507l2.3901-17.413v-12.292c-2.5e-4 -32.323-19.007-57.475-57.02-75.458-10.471-3.1865-20.031-4.7799-28.681-4.7801-41.428 2.4e-4 -69.54 21.169-84.335 63.507z"/>
</g>
<g transform="matrix(-1.2928 -.23796 .23796 -1.2928 1646.3 539.84)">
<path d="m202.85 386.91v11.95c-7e-5 31.185 17.982 55.882 53.947 74.092 10.243 2.9592 20.714 4.894 31.412 5.8044 38.468 6e-5 65.897-20.259 82.286-60.776l3.4144-22.193v-4.4387c-2.5e-4 -40.289-21.738-67.832-65.215-82.628l-22.535-2.3901c-37.331 2.3e-4 -64.418 20.6-81.262 61.8zm78.189-151.26h12.975c50.533 3e-4 93.326 25.153 128.38 75.458 15.706 27.77 23.559 54.858 23.559 81.262-3.2e-4 52.126-23.787 95.716-71.36 130.77-27.088 17.527-55.199 26.291-84.335 26.291h-6.4873c-50.078-1e-5 -93.212-24.811-129.4-74.433-15.706-28.225-23.559-55.768-23.559-82.628 0-35.282 12.633-69.767 37.9-103.46l139.99-241.04c10.243-6.1454 19.12-9.2183 26.632-9.2188 17.072 5.01e-4 28.225 11.723 33.461 35.168-2.3e-4 9.5607-10.812 31.413-32.437 65.556z"/>
<path d="m618.72 37.622c42.338 5.02e-4 78.189 18.666 107.55 55.996 16.844 22.991 25.266 48.257 25.266 75.799v6.4873c-3e-4 37.103-13.43 67.833-40.29 92.188 40.745 29.591 61.117 70.792 61.117 123.6-3.2e-4 52.354-23.901 96.172-71.702 131.45-27.088 17.527-55.313 26.291-84.676 26.291h-6.4873c-50.305-1e-5 -93.668-24.811-130.09-74.433-15.706-28.453-23.559-56.223-23.559-83.311 0-54.63 21.852-97.309 65.556-128.04-14.113-10.926-24.697-30.501-31.754-58.727-2.7315-7.056-4.0973-16.73-4.0972-29.022v-6.4873c-3e-5 -46.89 22.421-84.676 67.263-113.36 22.307-12.291 44.273-18.437 65.897-18.438zm-62.14 137.6c-1e-4 27.315 16.616 46.55 49.85 57.703l12.633 1.3658c28.908 3e-4 48.712-15.478 59.41-46.436l2.3901-16.389c-2.2e-4 -30.274-16.275-50.305-48.826-60.093l-15.023-1.3658c-27.998 4.3e-4 -47.46 15.024-58.386 45.07zm-29.705 216.13c-7e-5 40.29 21.51 68.288 64.532 83.994 5.2352 2.0487 13.43 3.073 24.583 3.0729 38.013 6e-5 65.328-21.169 81.945-63.507l2.3901-17.413v-12.292c-2.5e-4 -32.323-19.007-57.475-57.02-75.458-10.471-3.1865-20.031-4.7799-28.681-4.7801-41.428 2.4e-4 -69.54 21.169-84.335 63.507z"/>
</g>
<g transform="matrix(.24152 -.58535 .58537 .24153 348.1 827.72)" opacity=".78477">
<path d="m202.85 386.91v11.95c-7e-5 31.185 17.982 55.882 53.947 74.092 10.243 2.9592 20.714 4.894 31.412 5.8044 38.468 6e-5 65.897-20.259 82.286-60.776l3.4144-22.193v-4.4387c-2.5e-4 -40.289-21.738-67.832-65.215-82.628l-22.535-2.3901c-37.331 2.3e-4 -64.418 20.6-81.262 61.8zm78.189-151.26h12.975c50.533 3e-4 93.326 25.153 128.38 75.458 15.706 27.77 23.559 54.858 23.559 81.262-3.2e-4 52.126-23.787 95.716-71.36 130.77-27.088 17.527-55.199 26.291-84.335 26.291h-6.4873c-50.078-1e-5 -93.212-24.811-129.4-74.433-15.706-28.225-23.559-55.768-23.559-82.628 0-35.282 12.633-69.767 37.9-103.46l139.99-241.04c10.243-6.1454 19.12-9.2183 26.632-9.2188 17.072 5.01e-4 28.225 11.723 33.461 35.168-2.3e-4 9.5607-10.812 31.413-32.437 65.556z"/>
<path d="m618.72 37.622c42.338 5.02e-4 78.189 18.666 107.55 55.996 16.844 22.991 25.266 48.257 25.266 75.799v6.4873c-3e-4 37.103-13.43 67.833-40.29 92.188 40.745 29.591 61.117 70.792 61.117 123.6-3.2e-4 52.354-23.901 96.172-71.702 131.45-27.088 17.527-55.313 26.291-84.676 26.291h-6.4873c-50.305-1e-5 -93.668-24.811-130.09-74.433-15.706-28.453-23.559-56.223-23.559-83.311 0-54.63 21.852-97.309 65.556-128.04-14.113-10.926-24.697-30.501-31.754-58.727-2.7315-7.056-4.0973-16.73-4.0972-29.022v-6.4873c-3e-5 -46.89 22.421-84.676 67.263-113.36 22.307-12.291 44.273-18.437 65.897-18.438zm-62.14 137.6c-1e-4 27.315 16.616 46.55 49.85 57.703l12.633 1.3658c28.908 3e-4 48.712-15.478 59.41-46.436l2.3901-16.389c-2.2e-4 -30.274-16.275-50.305-48.826-60.093l-15.023-1.3658c-27.998 4.3e-4 -47.46 15.024-58.386 45.07zm-29.705 216.13c-7e-5 40.29 21.51 68.288 64.532 83.994 5.2352 2.0487 13.43 3.073 24.583 3.0729 38.013 6e-5 65.328-21.169 81.945-63.507l2.3901-17.413v-12.292c-2.5e-4 -32.323-19.007-57.475-57.02-75.458-10.471-3.1865-20.031-4.7799-28.681-4.7801-41.428 2.4e-4 -69.54 21.169-84.335 63.507z"/>
</g>
<g transform="matrix(.96676 -.0050379 .0050381 .96679 39.116 656.41)" opacity=".59533">
<path d="m202.85 386.91v11.95c-7e-5 31.185 17.982 55.882 53.947 74.092 10.243 2.9592 20.714 4.894 31.412 5.8044 38.468 6e-5 65.897-20.259 82.286-60.776l3.4144-22.193v-4.4387c-2.5e-4 -40.289-21.738-67.832-65.215-82.628l-22.535-2.3901c-37.331 2.3e-4 -64.418 20.6-81.262 61.8zm78.189-151.26h12.975c50.533 3e-4 93.326 25.153 128.38 75.458 15.706 27.77 23.559 54.858 23.559 81.262-3.2e-4 52.126-23.787 95.716-71.36 130.77-27.088 17.527-55.199 26.291-84.335 26.291h-6.4873c-50.078-1e-5 -93.212-24.811-129.4-74.433-15.706-28.225-23.559-55.768-23.559-82.628 0-35.282 12.633-69.767 37.9-103.46l139.99-241.04c10.243-6.1454 19.12-9.2183 26.632-9.2188 17.072 5.01e-4 28.225 11.723 33.461 35.168-2.3e-4 9.5607-10.812 31.413-32.437 65.556z"/>
<path d="m618.72 37.622c42.338 5.02e-4 78.189 18.666 107.55 55.996 16.844 22.991 25.266 48.257 25.266 75.799v6.4873c-3e-4 37.103-13.43 67.833-40.29 92.188 40.745 29.591 61.117 70.792 61.117 123.6-3.2e-4 52.354-23.901 96.172-71.702 131.45-27.088 17.527-55.313 26.291-84.676 26.291h-6.4873c-50.305-1e-5 -93.668-24.811-130.09-74.433-15.706-28.453-23.559-56.223-23.559-83.311 0-54.63 21.852-97.309 65.556-128.04-14.113-10.926-24.697-30.501-31.754-58.727-2.7315-7.056-4.0973-16.73-4.0972-29.022v-6.4873c-3e-5 -46.89 22.421-84.676 67.263-113.36 22.307-12.291 44.273-18.437 65.897-18.438zm-62.14 137.6c-1e-4 27.315 16.616 46.55 49.85 57.703l12.633 1.3658c28.908 3e-4 48.712-15.478 59.41-46.436l2.3901-16.389c-2.2e-4 -30.274-16.275-50.305-48.826-60.093l-15.023-1.3658c-27.998 4.3e-4 -47.46 15.024-58.386 45.07zm-29.705 216.13c-7e-5 40.29 21.51 68.288 64.532 83.994 5.2352 2.0487 13.43 3.073 24.583 3.0729 38.013 6e-5 65.328-21.169 81.945-63.507l2.3901-17.413v-12.292c-2.5e-4 -32.323-19.007-57.475-57.02-75.458-10.471-3.1865-20.031-4.7799-28.681-4.7801-41.428 2.4e-4 -69.54 21.169-84.335 63.507z"/>
</g>
<g transform="matrix(-.8077 .09659 -.096592 -.80772 760.71 689.58)" opacity=".39722">
<path d="m202.85 386.91v11.95c-7e-5 31.185 17.982 55.882 53.947 74.092 10.243 2.9592 20.714 4.894 31.412 5.8044 38.468 6e-5 65.897-20.259 82.286-60.776l3.4144-22.193v-4.4387c-2.5e-4 -40.289-21.738-67.832-65.215-82.628l-22.535-2.3901c-37.331 2.3e-4 -64.418 20.6-81.262 61.8zm78.189-151.26h12.975c50.533 3e-4 93.326 25.153 128.38 75.458 15.706 27.77 23.559 54.858 23.559 81.262-3.2e-4 52.126-23.787 95.716-71.36 130.77-27.088 17.527-55.199 26.291-84.335 26.291h-6.4873c-50.078-1e-5 -93.212-24.811-129.4-74.433-15.706-28.225-23.559-55.768-23.559-82.628 0-35.282 12.633-69.767 37.9-103.46l139.99-241.04c10.243-6.1454 19.12-9.2183 26.632-9.2188 17.072 5.01e-4 28.225 11.723 33.461 35.168-2.3e-4 9.5607-10.812 31.413-32.437 65.556z"/>
<path d="m618.72 37.622c42.338 5.02e-4 78.189 18.666 107.55 55.996 16.844 22.991 25.266 48.257 25.266 75.799v6.4873c-3e-4 37.103-13.43 67.833-40.29 92.188 40.745 29.591 61.117 70.792 61.117 123.6-3.2e-4 52.354-23.901 96.172-71.702 131.45-27.088 17.527-55.313 26.291-84.676 26.291h-6.4873c-50.305-1e-5 -93.668-24.811-130.09-74.433-15.706-28.453-23.559-56.223-23.559-83.311 0-54.63 21.852-97.309 65.556-128.04-14.113-10.926-24.697-30.501-31.754-58.727-2.7315-7.056-4.0973-16.73-4.0972-29.022v-6.4873c-3e-5 -46.89 22.421-84.676 67.263-113.36 22.307-12.291 44.273-18.437 65.897-18.438zm-62.14 137.6c-1e-4 27.315 16.616 46.55 49.85 57.703l12.633 1.3658c28.908 3e-4 48.712-15.478 59.41-46.436l2.3901-16.389c-2.2e-4 -30.274-16.275-50.305-48.826-60.093l-15.023-1.3658c-27.998 4.3e-4 -47.46 15.024-58.386 45.07zm-29.705 216.13c-7e-5 40.29 21.51 68.288 64.532 83.994 5.2352 2.0487 13.43 3.073 24.583 3.0729 38.013 6e-5 65.328-21.169 81.945-63.507l2.3901-17.413v-12.292c-2.5e-4 -32.323-19.007-57.475-57.02-75.458-10.471-3.1865-20.031-4.7799-28.681-4.7801-41.428 2.4e-4 -69.54 21.169-84.335 63.507z"/>
</g>
<g transform="matrix(-.38505 1.026 -1.0261 -.38506 1467.8 404.94)" opacity=".38565">
<path d="m202.85 386.91v11.95c-7e-5 31.185 17.982 55.882 53.947 74.092 10.243 2.9592 20.714 4.894 31.412 5.8044 38.468 6e-5 65.897-20.259 82.286-60.776l3.4144-22.193v-4.4387c-2.5e-4 -40.289-21.738-67.832-65.215-82.628l-22.535-2.3901c-37.331 2.3e-4 -64.418 20.6-81.262 61.8zm78.189-151.26h12.975c50.533 3e-4 93.326 25.153 128.38 75.458 15.706 27.77 23.559 54.858 23.559 81.262-3.2e-4 52.126-23.787 95.716-71.36 130.77-27.088 17.527-55.199 26.291-84.335 26.291h-6.4873c-50.078-1e-5 -93.212-24.811-129.4-74.433-15.706-28.225-23.559-55.768-23.559-82.628 0-35.282 12.633-69.767 37.9-103.46l139.99-241.04c10.243-6.1454 19.12-9.2183 26.632-9.2188 17.072 5.01e-4 28.225 11.723 33.461 35.168-2.3e-4 9.5607-10.812 31.413-32.437 65.556z"/>
<path d="m618.72 37.622c42.338 5.02e-4 78.189 18.666 107.55 55.996 16.844 22.991 25.266 48.257 25.266 75.799v6.4873c-3e-4 37.103-13.43 67.833-40.29 92.188 40.745 29.591 61.117 70.792 61.117 123.6-3.2e-4 52.354-23.901 96.172-71.702 131.45-27.088 17.527-55.313 26.291-84.676 26.291h-6.4873c-50.305-1e-5 -93.668-24.811-130.09-74.433-15.706-28.453-23.559-56.223-23.559-83.311 0-54.63 21.852-97.309 65.556-128.04-14.113-10.926-24.697-30.501-31.754-58.727-2.7315-7.056-4.0973-16.73-4.0972-29.022v-6.4873c-3e-5 -46.89 22.421-84.676 67.263-113.36 22.307-12.291 44.273-18.437 65.897-18.438zm-62.14 137.6c-1e-4 27.315 16.616 46.55 49.85 57.703l12.633 1.3658c28.908 3e-4 48.712-15.478 59.41-46.436l2.3901-16.389c-2.2e-4 -30.274-16.275-50.305-48.826-60.093l-15.023-1.3658c-27.998 4.3e-4 -47.46 15.024-58.386 45.07zm-29.705 216.13c-7e-5 40.29 21.51 68.288 64.532 83.994 5.2352 2.0487 13.43 3.073 24.583 3.0729 38.013 6e-5 65.328-21.169 81.945-63.507l2.3901-17.413v-12.292c-2.5e-4 -32.323-19.007-57.475-57.02-75.458-10.471-3.1865-20.031-4.7799-28.681-4.7801-41.428 2.4e-4 -69.54 21.169-84.335 63.507z"/>
</g>
<g transform="matrix(-.090509 .27701 -.27702 -.090511 984.94 805.09)" opacity=".3385">
<path d="m202.85 386.91v11.95c-7e-5 31.185 17.982 55.882 53.947 74.092 10.243 2.9592 20.714 4.894 31.412 5.8044 38.468 6e-5 65.897-20.259 82.286-60.776l3.4144-22.193v-4.4387c-2.5e-4 -40.289-21.738-67.832-65.215-82.628l-22.535-2.3901c-37.331 2.3e-4 -64.418 20.6-81.262 61.8zm78.189-151.26h12.975c50.533 3e-4 93.326 25.153 128.38 75.458 15.706 27.77 23.559 54.858 23.559 81.262-3.2e-4 52.126-23.787 95.716-71.36 130.77-27.088 17.527-55.199 26.291-84.335 26.291h-6.4873c-50.078-1e-5 -93.212-24.811-129.4-74.433-15.706-28.225-23.559-55.768-23.559-82.628 0-35.282 12.633-69.767 37.9-103.46l139.99-241.04c10.243-6.1454 19.12-9.2183 26.632-9.2188 17.072 5.01e-4 28.225 11.723 33.461 35.168-2.3e-4 9.5607-10.812 31.413-32.437 65.556z"/>
<path d="m618.72 37.622c42.338 5.02e-4 78.189 18.666 107.55 55.996 16.844 22.991 25.266 48.257 25.266 75.799v6.4873c-3e-4 37.103-13.43 67.833-40.29 92.188 40.745 29.591 61.117 70.792 61.117 123.6-3.2e-4 52.354-23.901 96.172-71.702 131.45-27.088 17.527-55.313 26.291-84.676 26.291h-6.4873c-50.305-1e-5 -93.668-24.811-130.09-74.433-15.706-28.453-23.559-56.223-23.559-83.311 0-54.63 21.852-97.309 65.556-128.04-14.113-10.926-24.697-30.501-31.754-58.727-2.7315-7.056-4.0973-16.73-4.0972-29.022v-6.4873c-3e-5 -46.89 22.421-84.676 67.263-113.36 22.307-12.291 44.273-18.437 65.897-18.438zm-62.14 137.6c-1e-4 27.315 16.616 46.55 49.85 57.703l12.633 1.3658c28.908 3e-4 48.712-15.478 59.41-46.436l2.3901-16.389c-2.2e-4 -30.274-16.275-50.305-48.826-60.093l-15.023-1.3658c-27.998 4.3e-4 -47.46 15.024-58.386 45.07zm-29.705 216.13c-7e-5 40.29 21.51 68.288 64.532 83.994 5.2352 2.0487 13.43 3.073 24.583 3.0729 38.013 6e-5 65.328-21.169 81.945-63.507l2.3901-17.413v-12.292c-2.5e-4 -32.323-19.007-57.475-57.02-75.458-10.471-3.1865-20.031-4.7799-28.681-4.7801-41.428 2.4e-4 -69.54 21.169-84.335 63.507z"/>
</g>
<g transform="matrix(-.65761 -.66498 .665 -.65762 1183.4 1699.5)">
<path d="m202.85 386.91v11.95c-7e-5 31.185 17.982 55.882 53.947 74.092 10.243 2.9592 20.714 4.894 31.412 5.8044 38.468 6e-5 65.897-20.259 82.286-60.776l3.4144-22.193v-4.4387c-2.5e-4 -40.289-21.738-67.832-65.215-82.628l-22.535-2.3901c-37.331 2.3e-4 -64.418 20.6-81.262 61.8zm78.189-151.26h12.975c50.533 3e-4 93.326 25.153 128.38 75.458 15.706 27.77 23.559 54.858 23.559 81.262-3.2e-4 52.126-23.787 95.716-71.36 130.77-27.088 17.527-55.199 26.291-84.335 26.291h-6.4873c-50.078-1e-5 -93.212-24.811-129.4-74.433-15.706-28.225-23.559-55.768-23.559-82.628 0-35.282 12.633-69.767 37.9-103.46l139.99-241.04c10.243-6.1454 19.12-9.2183 26.632-9.2188 17.072 5.01e-4 28.225 11.723 33.461 35.168-2.3e-4 9.5607-10.812 31.413-32.437 65.556z"/>
<path d="m618.72 37.622c42.338 5.02e-4 78.189 18.666 107.55 55.996 16.844 22.991 25.266 48.257 25.266 75.799v6.4873c-3e-4 37.103-13.43 67.833-40.29 92.188 40.745 29.591 61.117 70.792 61.117 123.6-3.2e-4 52.354-23.901 96.172-71.702 131.45-27.088 17.527-55.313 26.291-84.676 26.291h-6.4873c-50.305-1e-5 -93.668-24.811-130.09-74.433-15.706-28.453-23.559-56.223-23.559-83.311 0-54.63 21.852-97.309 65.556-128.04-14.113-10.926-24.697-30.501-31.754-58.727-2.7315-7.056-4.0973-16.73-4.0972-29.022v-6.4873c-3e-5 -46.89 22.421-84.676 67.263-113.36 22.307-12.291 44.273-18.437 65.897-18.438zm-62.14 137.6c-1e-4 27.315 16.616 46.55 49.85 57.703l12.633 1.3658c28.908 3e-4 48.712-15.478 59.41-46.436l2.3901-16.389c-2.2e-4 -30.274-16.275-50.305-48.826-60.093l-15.023-1.3658c-27.998 4.3e-4 -47.46 15.024-58.386 45.07zm-29.705 216.13c-7e-5 40.29 21.51 68.288 64.532 83.994 5.2352 2.0487 13.43 3.073 24.583 3.0729 38.013 6e-5 65.328-21.169 81.945-63.507l2.3901-17.413v-12.292c-2.5e-4 -32.323-19.007-57.475-57.02-75.458-10.471-3.1865-20.031-4.7799-28.681-4.7801-41.428 2.4e-4 -69.54 21.169-84.335 63.507z"/>
</g>
<g transform="matrix(1.4419 -.073947 .073949 1.4419 597.14 27.815)" opacity=".31094">
<path d="m202.85 386.91v11.95c-7e-5 31.185 17.982 55.882 53.947 74.092 10.243 2.9592 20.714 4.894 31.412 5.8044 38.468 6e-5 65.897-20.259 82.286-60.776l3.4144-22.193v-4.4387c-2.5e-4 -40.289-21.738-67.832-65.215-82.628l-22.535-2.3901c-37.331 2.3e-4 -64.418 20.6-81.262 61.8zm78.189-151.26h12.975c50.533 3e-4 93.326 25.153 128.38 75.458 15.706 27.77 23.559 54.858 23.559 81.262-3.2e-4 52.126-23.787 95.716-71.36 130.77-27.088 17.527-55.199 26.291-84.335 26.291h-6.4873c-50.078-1e-5 -93.212-24.811-129.4-74.433-15.706-28.225-23.559-55.768-23.559-82.628 0-35.282 12.633-69.767 37.9-103.46l139.99-241.04c10.243-6.1454 19.12-9.2183 26.632-9.2188 17.072 5.01e-4 28.225 11.723 33.461 35.168-2.3e-4 9.5607-10.812 31.413-32.437 65.556z"/>
<path d="m618.72 37.622c42.338 5.02e-4 78.189 18.666 107.55 55.996 16.844 22.991 25.266 48.257 25.266 75.799v6.4873c-3e-4 37.103-13.43 67.833-40.29 92.188 40.745 29.591 61.117 70.792 61.117 123.6-3.2e-4 52.354-23.901 96.172-71.702 131.45-27.088 17.527-55.313 26.291-84.676 26.291h-6.4873c-50.305-1e-5 -93.668-24.811-130.09-74.433-15.706-28.453-23.559-56.223-23.559-83.311 0-54.63 21.852-97.309 65.556-128.04-14.113-10.926-24.697-30.501-31.754-58.727-2.7315-7.056-4.0973-16.73-4.0972-29.022v-6.4873c-3e-5 -46.89 22.421-84.676 67.263-113.36 22.307-12.291 44.273-18.437 65.897-18.438zm-62.14 137.6c-1e-4 27.315 16.616 46.55 49.85 57.703l12.633 1.3658c28.908 3e-4 48.712-15.478 59.41-46.436l2.3901-16.389c-2.2e-4 -30.274-16.275-50.305-48.826-60.093l-15.023-1.3658c-27.998 4.3e-4 -47.46 15.024-58.386 45.07zm-29.705 216.13c-7e-5 40.29 21.51 68.288 64.532 83.994 5.2352 2.0487 13.43 3.073 24.583 3.0729 38.013 6e-5 65.328-21.169 81.945-63.507l2.3901-17.413v-12.292c-2.5e-4 -32.323-19.007-57.475-57.02-75.458-10.471-3.1865-20.031-4.7799-28.681-4.7801-41.428 2.4e-4 -69.54 21.169-84.335 63.507z"/>
</g>
<g transform="matrix(.54976 .63775 -.63776 .54978 1371.1 303.19)" opacity=".42601">
<path d="m202.85 386.91v11.95c-7e-5 31.185 17.982 55.882 53.947 74.092 10.243 2.9592 20.714 4.894 31.412 5.8044 38.468 6e-5 65.897-20.259 82.286-60.776l3.4144-22.193v-4.4387c-2.5e-4 -40.289-21.738-67.832-65.215-82.628l-22.535-2.3901c-37.331 2.3e-4 -64.418 20.6-81.262 61.8zm78.189-151.26h12.975c50.533 3e-4 93.326 25.153 128.38 75.458 15.706 27.77 23.559 54.858 23.559 81.262-3.2e-4 52.126-23.787 95.716-71.36 130.77-27.088 17.527-55.199 26.291-84.335 26.291h-6.4873c-50.078-1e-5 -93.212-24.811-129.4-74.433-15.706-28.225-23.559-55.768-23.559-82.628 0-35.282 12.633-69.767 37.9-103.46l139.99-241.04c10.243-6.1454 19.12-9.2183 26.632-9.2188 17.072 5.01e-4 28.225 11.723 33.461 35.168-2.3e-4 9.5607-10.812 31.413-32.437 65.556z"/>
<path d="m618.72 37.622c42.338 5.02e-4 78.189 18.666 107.55 55.996 16.844 22.991 25.266 48.257 25.266 75.799v6.4873c-3e-4 37.103-13.43 67.833-40.29 92.188 40.745 29.591 61.117 70.792 61.117 123.6-3.2e-4 52.354-23.901 96.172-71.702 131.45-27.088 17.527-55.313 26.291-84.676 26.291h-6.4873c-50.305-1e-5 -93.668-24.811-130.09-74.433-15.706-28.453-23.559-56.223-23.559-83.311 0-54.63 21.852-97.309 65.556-128.04-14.113-10.926-24.697-30.501-31.754-58.727-2.7315-7.056-4.0973-16.73-4.0972-29.022v-6.4873c-3e-5 -46.89 22.421-84.676 67.263-113.36 22.307-12.291 44.273-18.437 65.897-18.438zm-62.14 137.6c-1e-4 27.315 16.616 46.55 49.85 57.703l12.633 1.3658c28.908 3e-4 48.712-15.478 59.41-46.436l2.3901-16.389c-2.2e-4 -30.274-16.275-50.305-48.826-60.093l-15.023-1.3658c-27.998 4.3e-4 -47.46 15.024-58.386 45.07zm-29.705 216.13c-7e-5 40.29 21.51 68.288 64.532 83.994 5.2352 2.0487 13.43 3.073 24.583 3.0729 38.013 6e-5 65.328-21.169 81.945-63.507l2.3901-17.413v-12.292c-2.5e-4 -32.323-19.007-57.475-57.02-75.458-10.471-3.1865-20.031-4.7799-28.681-4.7801-41.428 2.4e-4 -69.54 21.169-84.335 63.507z"/>
</g>
<g transform="matrix(.50738 .39101 -.39102 .50739 1068 475.39)">
<path d="m202.85 386.91v11.95c-7e-5 31.185 17.982 55.882 53.947 74.092 10.243 2.9592 20.714 4.894 31.412 5.8044 38.468 6e-5 65.897-20.259 82.286-60.776l3.4144-22.193v-4.4387c-2.5e-4 -40.289-21.738-67.832-65.215-82.628l-22.535-2.3901c-37.331 2.3e-4 -64.418 20.6-81.262 61.8zm78.189-151.26h12.975c50.533 3e-4 93.326 25.153 128.38 75.458 15.706 27.77 23.559 54.858 23.559 81.262-3.2e-4 52.126-23.787 95.716-71.36 130.77-27.088 17.527-55.199 26.291-84.335 26.291h-6.4873c-50.078-1e-5 -93.212-24.811-129.4-74.433-15.706-28.225-23.559-55.768-23.559-82.628 0-35.282 12.633-69.767 37.9-103.46l139.99-241.04c10.243-6.1454 19.12-9.2183 26.632-9.2188 17.072 5.01e-4 28.225 11.723 33.461 35.168-2.3e-4 9.5607-10.812 31.413-32.437 65.556z"/>
<path d="m618.72 37.622c42.338 5.02e-4 78.189 18.666 107.55 55.996 16.844 22.991 25.266 48.257 25.266 75.799v6.4873c-3e-4 37.103-13.43 67.833-40.29 92.188 40.745 29.591 61.117 70.792 61.117 123.6-3.2e-4 52.354-23.901 96.172-71.702 131.45-27.088 17.527-55.313 26.291-84.676 26.291h-6.4873c-50.305-1e-5 -93.668-24.811-130.09-74.433-15.706-28.453-23.559-56.223-23.559-83.311 0-54.63 21.852-97.309 65.556-128.04-14.113-10.926-24.697-30.501-31.754-58.727-2.7315-7.056-4.0973-16.73-4.0972-29.022v-6.4873c-3e-5 -46.89 22.421-84.676 67.263-113.36 22.307-12.291 44.273-18.437 65.897-18.438zm-62.14 137.6c-1e-4 27.315 16.616 46.55 49.85 57.703l12.633 1.3658c28.908 3e-4 48.712-15.478 59.41-46.436l2.3901-16.389c-2.2e-4 -30.274-16.275-50.305-48.826-60.093l-15.023-1.3658c-27.998 4.3e-4 -47.46 15.024-58.386 45.07zm-29.705 216.13c-7e-5 40.29 21.51 68.288 64.532 83.994 5.2352 2.0487 13.43 3.073 24.583 3.0729 38.013 6e-5 65.328-21.169 81.945-63.507l2.3901-17.413v-12.292c-2.5e-4 -32.323-19.007-57.475-57.02-75.458-10.471-3.1865-20.031-4.7799-28.681-4.7801-41.428 2.4e-4 -69.54 21.169-84.335 63.507z"/>
</g>
<g transform="matrix(.33825 -.001916 .001916 .33825 1637.7 -1.2338)" opacity=".54138">
<path d="m202.85 386.91v11.95c-7e-5 31.185 17.982 55.882 53.947 74.092 10.243 2.9592 20.714 4.894 31.412 5.8044 38.468 6e-5 65.897-20.259 82.286-60.776l3.4144-22.193v-4.4387c-2.5e-4 -40.289-21.738-67.832-65.215-82.628l-22.535-2.3901c-37.331 2.3e-4 -64.418 20.6-81.262 61.8zm78.189-151.26h12.975c50.533 3e-4 93.326 25.153 128.38 75.458 15.706 27.77 23.559 54.858 23.559 81.262-3.2e-4 52.126-23.787 95.716-71.36 130.77-27.088 17.527-55.199 26.291-84.335 26.291h-6.4873c-50.078-1e-5 -93.212-24.811-129.4-74.433-15.706-28.225-23.559-55.768-23.559-82.628 0-35.282 12.633-69.767 37.9-103.46l139.99-241.04c10.243-6.1454 19.12-9.2183 26.632-9.2188 17.072 5.01e-4 28.225 11.723 33.461 35.168-2.3e-4 9.5607-10.812 31.413-32.437 65.556z"/>
<path d="m618.72 37.622c42.338 5.02e-4 78.189 18.666 107.55 55.996 16.844 22.991 25.266 48.257 25.266 75.799v6.4873c-3e-4 37.103-13.43 67.833-40.29 92.188 40.745 29.591 61.117 70.792 61.117 123.6-3.2e-4 52.354-23.901 96.172-71.702 131.45-27.088 17.527-55.313 26.291-84.676 26.291h-6.4873c-50.305-1e-5 -93.668-24.811-130.09-74.433-15.706-28.453-23.559-56.223-23.559-83.311 0-54.63 21.852-97.309 65.556-128.04-14.113-10.926-24.697-30.501-31.754-58.727-2.7315-7.056-4.0973-16.73-4.0972-29.022v-6.4873c-3e-5 -46.89 22.421-84.676 67.263-113.36 22.307-12.291 44.273-18.437 65.897-18.438zm-62.14 137.6c-1e-4 27.315 16.616 46.55 49.85 57.703l12.633 1.3658c28.908 3e-4 48.712-15.478 59.41-46.436l2.3901-16.389c-2.2e-4 -30.274-16.275-50.305-48.826-60.093l-15.023-1.3658c-27.998 4.3e-4 -47.46 15.024-58.386 45.07zm-29.705 216.13c-7e-5 40.29 21.51 68.288 64.532 83.994 5.2352 2.0487 13.43 3.073 24.583 3.0729 38.013 6e-5 65.328-21.169 81.945-63.507l2.3901-17.413v-12.292c-2.5e-4 -32.323-19.007-57.475-57.02-75.458-10.471-3.1865-20.031-4.7799-28.681-4.7801-41.428 2.4e-4 -69.54 21.169-84.335 63.507z"/>
</g>
<g transform="matrix(.0003089 1.2208 -1.2208 .0003089 2066.7 11.193)">
<path d="m202.85 386.91v11.95c-7e-5 31.185 17.982 55.882 53.947 74.092 10.243 2.9592 20.714 4.894 31.412 5.8044 38.468 6e-5 65.897-20.259 82.286-60.776l3.4144-22.193v-4.4387c-2.5e-4 -40.289-21.738-67.832-65.215-82.628l-22.535-2.3901c-37.331 2.3e-4 -64.418 20.6-81.262 61.8zm78.189-151.26h12.975c50.533 3e-4 93.326 25.153 128.38 75.458 15.706 27.77 23.559 54.858 23.559 81.262-3.2e-4 52.126-23.787 95.716-71.36 130.77-27.088 17.527-55.199 26.291-84.335 26.291h-6.4873c-50.078-1e-5 -93.212-24.811-129.4-74.433-15.706-28.225-23.559-55.768-23.559-82.628 0-35.282 12.633-69.767 37.9-103.46l139.99-241.04c10.243-6.1454 19.12-9.2183 26.632-9.2188 17.072 5.01e-4 28.225 11.723 33.461 35.168-2.3e-4 9.5607-10.812 31.413-32.437 65.556z"/>
<path d="m618.72 37.622c42.338 5.02e-4 78.189 18.666 107.55 55.996 16.844 22.991 25.266 48.257 25.266 75.799v6.4873c-3e-4 37.103-13.43 67.833-40.29 92.188 40.745 29.591 61.117 70.792 61.117 123.6-3.2e-4 52.354-23.901 96.172-71.702 131.45-27.088 17.527-55.313 26.291-84.676 26.291h-6.4873c-50.305-1e-5 -93.668-24.811-130.09-74.433-15.706-28.453-23.559-56.223-23.559-83.311 0-54.63 21.852-97.309 65.556-128.04-14.113-10.926-24.697-30.501-31.754-58.727-2.7315-7.056-4.0973-16.73-4.0972-29.022v-6.4873c-3e-5 -46.89 22.421-84.676 67.263-113.36 22.307-12.291 44.273-18.437 65.897-18.438zm-62.14 137.6c-1e-4 27.315 16.616 46.55 49.85 57.703l12.633 1.3658c28.908 3e-4 48.712-15.478 59.41-46.436l2.3901-16.389c-2.2e-4 -30.274-16.275-50.305-48.826-60.093l-15.023-1.3658c-27.998 4.3e-4 -47.46 15.024-58.386 45.07zm-29.705 216.13c-7e-5 40.29 21.51 68.288 64.532 83.994 5.2352 2.0487 13.43 3.073 24.583 3.0729 38.013 6e-5 65.328-21.169 81.945-63.507l2.3901-17.413v-12.292c-2.5e-4 -32.323-19.007-57.475-57.02-75.458-10.471-3.1865-20.031-4.7799-28.681-4.7801-41.428 2.4e-4 -69.54 21.169-84.335 63.507z"/>
</g>
<g transform="matrix(-.12682 -.19012 .19012 -.12682 1790.6 620.77)" opacity=".54864">
<path d="m202.85 386.91v11.95c-7e-5 31.185 17.982 55.882 53.947 74.092 10.243 2.9592 20.714 4.894 31.412 5.8044 38.468 6e-5 65.897-20.259 82.286-60.776l3.4144-22.193v-4.4387c-2.5e-4 -40.289-21.738-67.832-65.215-82.628l-22.535-2.3901c-37.331 2.3e-4 -64.418 20.6-81.262 61.8zm78.189-151.26h12.975c50.533 3e-4 93.326 25.153 128.38 75.458 15.706 27.77 23.559 54.858 23.559 81.262-3.2e-4 52.126-23.787 95.716-71.36 130.77-27.088 17.527-55.199 26.291-84.335 26.291h-6.4873c-50.078-1e-5 -93.212-24.811-129.4-74.433-15.706-28.225-23.559-55.768-23.559-82.628 0-35.282 12.633-69.767 37.9-103.46l139.99-241.04c10.243-6.1454 19.12-9.2183 26.632-9.2188 17.072 5.01e-4 28.225 11.723 33.461 35.168-2.3e-4 9.5607-10.812 31.413-32.437 65.556z"/>
<path d="m618.72 37.622c42.338 5.02e-4 78.189 18.666 107.55 55.996 16.844 22.991 25.266 48.257 25.266 75.799v6.4873c-3e-4 37.103-13.43 67.833-40.29 92.188 40.745 29.591 61.117 70.792 61.117 123.6-3.2e-4 52.354-23.901 96.172-71.702 131.45-27.088 17.527-55.313 26.291-84.676 26.291h-6.4873c-50.305-1e-5 -93.668-24.811-130.09-74.433-15.706-28.453-23.559-56.223-23.559-83.311 0-54.63 21.852-97.309 65.556-128.04-14.113-10.926-24.697-30.501-31.754-58.727-2.7315-7.056-4.0973-16.73-4.0972-29.022v-6.4873c-3e-5 -46.89 22.421-84.676 67.263-113.36 22.307-12.291 44.273-18.437 65.897-18.438zm-62.14 137.6c-1e-4 27.315 16.616 46.55 49.85 57.703l12.633 1.3658c28.908 3e-4 48.712-15.478 59.41-46.436l2.3901-16.389c-2.2e-4 -30.274-16.275-50.305-48.826-60.093l-15.023-1.3658c-27.998 4.3e-4 -47.46 15.024-58.386 45.07zm-29.705 216.13c-7e-5 40.29 21.51 68.288 64.532 83.994 5.2352 2.0487 13.43 3.073 24.583 3.0729 38.013 6e-5 65.328-21.169 81.945-63.507l2.3901-17.413v-12.292c-2.5e-4 -32.323-19.007-57.475-57.02-75.458-10.471-3.1865-20.031-4.7799-28.681-4.7801-41.428 2.4e-4 -69.54 21.169-84.335 63.507z"/>
</g>
<g transform="matrix(1.5009 -.00077763 .00077765 1.5009 1285.1 637.64)">
<path d="m202.85 386.91v11.95c-7e-5 31.185 17.982 55.882 53.947 74.092 10.243 2.9592 20.714 4.894 31.412 5.8044 38.468 6e-5 65.897-20.259 82.286-60.776l3.4144-22.193v-4.4387c-2.5e-4 -40.289-21.738-67.832-65.215-82.628l-22.535-2.3901c-37.331 2.3e-4 -64.418 20.6-81.262 61.8zm78.189-151.26h12.975c50.533 3e-4 93.326 25.153 128.38 75.458 15.706 27.77 23.559 54.858 23.559 81.262-3.2e-4 52.126-23.787 95.716-71.36 130.77-27.088 17.527-55.199 26.291-84.335 26.291h-6.4873c-50.078-1e-5 -93.212-24.811-129.4-74.433-15.706-28.225-23.559-55.768-23.559-82.628 0-35.282 12.633-69.767 37.9-103.46l139.99-241.04c10.243-6.1454 19.12-9.2183 26.632-9.2188 17.072 5.01e-4 28.225 11.723 33.461 35.168-2.3e-4 9.5607-10.812 31.413-32.437 65.556z"/>
<path d="m618.72 37.622c42.338 5.02e-4 78.189 18.666 107.55 55.996 16.844 22.991 25.266 48.257 25.266 75.799v6.4873c-3e-4 37.103-13.43 67.833-40.29 92.188 40.745 29.591 61.117 70.792 61.117 123.6-3.2e-4 52.354-23.901 96.172-71.702 131.45-27.088 17.527-55.313 26.291-84.676 26.291h-6.4873c-50.305-1e-5 -93.668-24.811-130.09-74.433-15.706-28.453-23.559-56.223-23.559-83.311 0-54.63 21.852-97.309 65.556-128.04-14.113-10.926-24.697-30.501-31.754-58.727-2.7315-7.056-4.0973-16.73-4.0972-29.022v-6.4873c-3e-5 -46.89 22.421-84.676 67.263-113.36 22.307-12.291 44.273-18.437 65.897-18.438zm-62.14 137.6c-1e-4 27.315 16.616 46.55 49.85 57.703l12.633 1.3658c28.908 3e-4 48.712-15.478 59.41-46.436l2.3901-16.389c-2.2e-4 -30.274-16.275-50.305-48.826-60.093l-15.023-1.3658c-27.998 4.3e-4 -47.46 15.024-58.386 45.07zm-29.705 216.13c-7e-5 40.29 21.51 68.288 64.532 83.994 5.2352 2.0487 13.43 3.073 24.583 3.0729 38.013 6e-5 65.328-21.169 81.945-63.507l2.3901-17.413v-12.292c-2.5e-4 -32.323-19.007-57.475-57.02-75.458-10.471-3.1865-20.031-4.7799-28.681-4.7801-41.428 2.4e-4 -69.54 21.169-84.335 63.507z"/>
</g>
<g transform="matrix(-.88164 .25656 -.25657 -.88166 2356.5 535.54)" opacity=".56054">
<path d="m202.85 386.91v11.95c-7e-5 31.185 17.982 55.882 53.947 74.092 10.243 2.9592 20.714 4.894 31.412 5.8044 38.468 6e-5 65.897-20.259 82.286-60.776l3.4144-22.193v-4.4387c-2.5e-4 -40.289-21.738-67.832-65.215-82.628l-22.535-2.3901c-37.331 2.3e-4 -64.418 20.6-81.262 61.8zm78.189-151.26h12.975c50.533 3e-4 93.326 25.153 128.38 75.458 15.706 27.77 23.559 54.858 23.559 81.262-3.2e-4 52.126-23.787 95.716-71.36 130.77-27.088 17.527-55.199 26.291-84.335 26.291h-6.4873c-50.078-1e-5 -93.212-24.811-129.4-74.433-15.706-28.225-23.559-55.768-23.559-82.628 0-35.282 12.633-69.767 37.9-103.46l139.99-241.04c10.243-6.1454 19.12-9.2183 26.632-9.2188 17.072 5.01e-4 28.225 11.723 33.461 35.168-2.3e-4 9.5607-10.812 31.413-32.437 65.556z"/>
<path d="m618.72 37.622c42.338 5.02e-4 78.189 18.666 107.55 55.996 16.844 22.991 25.266 48.257 25.266 75.799v6.4873c-3e-4 37.103-13.43 67.833-40.29 92.188 40.745 29.591 61.117 70.792 61.117 123.6-3.2e-4 52.354-23.901 96.172-71.702 131.45-27.088 17.527-55.313 26.291-84.676 26.291h-6.4873c-50.305-1e-5 -93.668-24.811-130.09-74.433-15.706-28.453-23.559-56.223-23.559-83.311 0-54.63 21.852-97.309 65.556-128.04-14.113-10.926-24.697-30.501-31.754-58.727-2.7315-7.056-4.0973-16.73-4.0972-29.022v-6.4873c-3e-5 -46.89 22.421-84.676 67.263-113.36 22.307-12.291 44.273-18.437 65.897-18.438zm-62.14 137.6c-1e-4 27.315 16.616 46.55 49.85 57.703l12.633 1.3658c28.908 3e-4 48.712-15.478 59.41-46.436l2.3901-16.389c-2.2e-4 -30.274-16.275-50.305-48.826-60.093l-15.023-1.3658c-27.998 4.3e-4 -47.46 15.024-58.386 45.07zm-29.705 216.13c-7e-5 40.29 21.51 68.288 64.532 83.994 5.2352 2.0487 13.43 3.073 24.583 3.0729 38.013 6e-5 65.328-21.169 81.945-63.507l2.3901-17.413v-12.292c-2.5e-4 -32.323-19.007-57.475-57.02-75.458-10.471-3.1865-20.031-4.7799-28.681-4.7801-41.428 2.4e-4 -69.54 21.169-84.335 63.507z"/>
</g>
<g transform="matrix(-1.0907 -.90612 .90614 -1.0908 2101.3 795.03)" opacity=".71206">
<path d="m202.85 386.91v11.95c-7e-5 31.185 17.982 55.882 53.947 74.092 10.243 2.9592 20.714 4.894 31.412 5.8044 38.468 6e-5 65.897-20.259 82.286-60.776l3.4144-22.193v-4.4387c-2.5e-4 -40.289-21.738-67.832-65.215-82.628l-22.535-2.3901c-37.331 2.3e-4 -64.418 20.6-81.262 61.8zm78.189-151.26h12.975c50.533 3e-4 93.326 25.153 128.38 75.458 15.706 27.77 23.559 54.858 23.559 81.262-3.2e-4 52.126-23.787 95.716-71.36 130.77-27.088 17.527-55.199 26.291-84.335 26.291h-6.4873c-50.078-1e-5 -93.212-24.811-129.4-74.433-15.706-28.225-23.559-55.768-23.559-82.628 0-35.282 12.633-69.767 37.9-103.46l139.99-241.04c10.243-6.1454 19.12-9.2183 26.632-9.2188 17.072 5.01e-4 28.225 11.723 33.461 35.168-2.3e-4 9.5607-10.812 31.413-32.437 65.556z"/>
<path d="m618.72 37.622c42.338 5.02e-4 78.189 18.666 107.55 55.996 16.844 22.991 25.266 48.257 25.266 75.799v6.4873c-3e-4 37.103-13.43 67.833-40.29 92.188 40.745 29.591 61.117 70.792 61.117 123.6-3.2e-4 52.354-23.901 96.172-71.702 131.45-27.088 17.527-55.313 26.291-84.676 26.291h-6.4873c-50.305-1e-5 -93.668-24.811-130.09-74.433-15.706-28.453-23.559-56.223-23.559-83.311 0-54.63 21.852-97.309 65.556-128.04-14.113-10.926-24.697-30.501-31.754-58.727-2.7315-7.056-4.0973-16.73-4.0972-29.022v-6.4873c-3e-5 -46.89 22.421-84.676 67.263-113.36 22.307-12.291 44.273-18.437 65.897-18.438zm-62.14 137.6c-1e-4 27.315 16.616 46.55 49.85 57.703l12.633 1.3658c28.908 3e-4 48.712-15.478 59.41-46.436l2.3901-16.389c-2.2e-4 -30.274-16.275-50.305-48.826-60.093l-15.023-1.3658c-27.998 4.3e-4 -47.46 15.024-58.386 45.07zm-29.705 216.13c-7e-5 40.29 21.51 68.288 64.532 83.994 5.2352 2.0487 13.43 3.073 24.583 3.0729 38.013 6e-5 65.328-21.169 81.945-63.507l2.3901-17.413v-12.292c-2.5e-4 -32.323-19.007-57.475-57.02-75.458-10.471-3.1865-20.031-4.7799-28.681-4.7801-41.428 2.4e-4 -69.54 21.169-84.335 63.507z"/>
</g>
<g transform="matrix(1.0373 -.0077364 .0077366 1.0373 803.72 8.431)" opacity=".68093">
<path d="m202.85 386.91v11.95c-7e-5 31.185 17.982 55.882 53.947 74.092 10.243 2.9592 20.714 4.894 31.412 5.8044 38.468 6e-5 65.897-20.259 82.286-60.776l3.4144-22.193v-4.4387c-2.5e-4 -40.289-21.738-67.832-65.215-82.628l-22.535-2.3901c-37.331 2.3e-4 -64.418 20.6-81.262 61.8zm78.189-151.26h12.975c50.533 3e-4 93.326 25.153 128.38 75.458 15.706 27.77 23.559 54.858 23.559 81.262-3.2e-4 52.126-23.787 95.716-71.36 130.77-27.088 17.527-55.199 26.291-84.335 26.291h-6.4873c-50.078-1e-5 -93.212-24.811-129.4-74.433-15.706-28.225-23.559-55.768-23.559-82.628 0-35.282 12.633-69.767 37.9-103.46l139.99-241.04c10.243-6.1454 19.12-9.2183 26.632-9.2188 17.072 5.01e-4 28.225 11.723 33.461 35.168-2.3e-4 9.5607-10.812 31.413-32.437 65.556z"/>
<path d="m618.72 37.622c42.338 5.02e-4 78.189 18.666 107.55 55.996 16.844 22.991 25.266 48.257 25.266 75.799v6.4873c-3e-4 37.103-13.43 67.833-40.29 92.188 40.745 29.591 61.117 70.792 61.117 123.6-3.2e-4 52.354-23.901 96.172-71.702 131.45-27.088 17.527-55.313 26.291-84.676 26.291h-6.4873c-50.305-1e-5 -93.668-24.811-130.09-74.433-15.706-28.453-23.559-56.223-23.559-83.311 0-54.63 21.852-97.309 65.556-128.04-14.113-10.926-24.697-30.501-31.754-58.727-2.7315-7.056-4.0973-16.73-4.0972-29.022v-6.4873c-3e-5 -46.89 22.421-84.676 67.263-113.36 22.307-12.291 44.273-18.437 65.897-18.438zm-62.14 137.6c-1e-4 27.315 16.616 46.55 49.85 57.703l12.633 1.3658c28.908 3e-4 48.712-15.478 59.41-46.436l2.3901-16.389c-2.2e-4 -30.274-16.275-50.305-48.826-60.093l-15.023-1.3658c-27.998 4.3e-4 -47.46 15.024-58.386 45.07zm-29.705 216.13c-7e-5 40.29 21.51 68.288 64.532 83.994 5.2352 2.0487 13.43 3.073 24.583 3.0729 38.013 6e-5 65.328-21.169 81.945-63.507l2.3901-17.413v-12.292c-2.5e-4 -32.323-19.007-57.475-57.02-75.458-10.471-3.1865-20.031-4.7799-28.681-4.7801-41.428 2.4e-4 -69.54 21.169-84.335 63.507z"/>
</g>
<g transform="matrix(1.2077 .01722 -.017223 1.2078 1016.4 697.96)" opacity=".69058">
<path d="m202.85 386.91v11.95c-7e-5 31.185 17.982 55.882 53.947 74.092 10.243 2.9592 20.714 4.894 31.412 5.8044 38.468 6e-5 65.897-20.259 82.286-60.776l3.4144-22.193v-4.4387c-2.5e-4 -40.289-21.738-67.832-65.215-82.628l-22.535-2.3901c-37.331 2.3e-4 -64.418 20.6-81.262 61.8zm78.189-151.26h12.975c50.533 3e-4 93.326 25.153 128.38 75.458 15.706 27.77 23.559 54.858 23.559 81.262-3.2e-4 52.126-23.787 95.716-71.36 130.77-27.088 17.527-55.199 26.291-84.335 26.291h-6.4873c-50.078-1e-5 -93.212-24.811-129.4-74.433-15.706-28.225-23.559-55.768-23.559-82.628 0-35.282 12.633-69.767 37.9-103.46l139.99-241.04c10.243-6.1454 19.12-9.2183 26.632-9.2188 17.072 5.01e-4 28.225 11.723 33.461 35.168-2.3e-4 9.5607-10.812 31.413-32.437 65.556z"/>
<path d="m618.72 37.622c42.338 5.02e-4 78.189 18.666 107.55 55.996 16.844 22.991 25.266 48.257 25.266 75.799v6.4873c-3e-4 37.103-13.43 67.833-40.29 92.188 40.745 29.591 61.117 70.792 61.117 123.6-3.2e-4 52.354-23.901 96.172-71.702 131.45-27.088 17.527-55.313 26.291-84.676 26.291h-6.4873c-50.305-1e-5 -93.668-24.811-130.09-74.433-15.706-28.453-23.559-56.223-23.559-83.311 0-54.63 21.852-97.309 65.556-128.04-14.113-10.926-24.697-30.501-31.754-58.727-2.7315-7.056-4.0973-16.73-4.0972-29.022v-6.4873c-3e-5 -46.89 22.421-84.676 67.263-113.36 22.307-12.291 44.273-18.437 65.897-18.438zm-62.14 137.6c-1e-4 27.315 16.616 46.55 49.85 57.703l12.633 1.3658c28.908 3e-4 48.712-15.478 59.41-46.436l2.3901-16.389c-2.2e-4 -30.274-16.275-50.305-48.826-60.093l-15.023-1.3658c-27.998 4.3e-4 -47.46 15.024-58.386 45.07zm-29.705 216.13c-7e-5 40.29 21.51 68.288 64.532 83.994 5.2352 2.0487 13.43 3.073 24.583 3.0729 38.013 6e-5 65.328-21.169 81.945-63.507l2.3901-17.413v-12.292c-2.5e-4 -32.323-19.007-57.475-57.02-75.458-10.471-3.1865-20.031-4.7799-28.681-4.7801-41.428 2.4e-4 -69.54 21.169-84.335 63.507z"/>
</g>
<g transform="matrix(.59292 -.51241 .51242 .59293 1596.6 1180.6)" opacity=".38596">
<path d="m202.85 386.91v11.95c-7e-5 31.185 17.982 55.882 53.947 74.092 10.243 2.9592 20.714 4.894 31.412 5.8044 38.468 6e-5 65.897-20.259 82.286-60.776l3.4144-22.193v-4.4387c-2.5e-4 -40.289-21.738-67.832-65.215-82.628l-22.535-2.3901c-37.331 2.3e-4 -64.418 20.6-81.262 61.8zm78.189-151.26h12.975c50.533 3e-4 93.326 25.153 128.38 75.458 15.706 27.77 23.559 54.858 23.559 81.262-3.2e-4 52.126-23.787 95.716-71.36 130.77-27.088 17.527-55.199 26.291-84.335 26.291h-6.4873c-50.078-1e-5 -93.212-24.811-129.4-74.433-15.706-28.225-23.559-55.768-23.559-82.628 0-35.282 12.633-69.767 37.9-103.46l139.99-241.04c10.243-6.1454 19.12-9.2183 26.632-9.2188 17.072 5.01e-4 28.225 11.723 33.461 35.168-2.3e-4 9.5607-10.812 31.413-32.437 65.556z"/>
<path d="m618.72 37.622c42.338 5.02e-4 78.189 18.666 107.55 55.996 16.844 22.991 25.266 48.257 25.266 75.799v6.4873c-3e-4 37.103-13.43 67.833-40.29 92.188 40.745 29.591 61.117 70.792 61.117 123.6-3.2e-4 52.354-23.901 96.172-71.702 131.45-27.088 17.527-55.313 26.291-84.676 26.291h-6.4873c-50.305-1e-5 -93.668-24.811-130.09-74.433-15.706-28.453-23.559-56.223-23.559-83.311 0-54.63 21.852-97.309 65.556-128.04-14.113-10.926-24.697-30.501-31.754-58.727-2.7315-7.056-4.0973-16.73-4.0972-29.022v-6.4873c-3e-5 -46.89 22.421-84.676 67.263-113.36 22.307-12.291 44.273-18.437 65.897-18.438zm-62.14 137.6c-1e-4 27.315 16.616 46.55 49.85 57.703l12.633 1.3658c28.908 3e-4 48.712-15.478 59.41-46.436l2.3901-16.389c-2.2e-4 -30.274-16.275-50.305-48.826-60.093l-15.023-1.3658c-27.998 4.3e-4 -47.46 15.024-58.386 45.07zm-29.705 216.13c-7e-5 40.29 21.51 68.288 64.532 83.994 5.2352 2.0487 13.43 3.073 24.583 3.0729 38.013 6e-5 65.328-21.169 81.945-63.507l2.3901-17.413v-12.292c-2.5e-4 -32.323-19.007-57.475-57.02-75.458-10.471-3.1865-20.031-4.7799-28.681-4.7801-41.428 2.4e-4 -69.54 21.169-84.335 63.507z"/>
</g>
<g transform="matrix(-.45188 -1.2909 1.291 -.45189 2082.1 664.24)" opacity=".81741">
<path d="m202.85 386.91v11.95c-7e-5 31.185 17.982 55.882 53.947 74.092 10.243 2.9592 20.714 4.894 31.412 5.8044 38.468 6e-5 65.897-20.259 82.286-60.776l3.4144-22.193v-4.4387c-2.5e-4 -40.289-21.738-67.832-65.215-82.628l-22.535-2.3901c-37.331 2.3e-4 -64.418 20.6-81.262 61.8zm78.189-151.26h12.975c50.533 3e-4 93.326 25.153 128.38 75.458 15.706 27.77 23.559 54.858 23.559 81.262-3.2e-4 52.126-23.787 95.716-71.36 130.77-27.088 17.527-55.199 26.291-84.335 26.291h-6.4873c-50.078-1e-5 -93.212-24.811-129.4-74.433-15.706-28.225-23.559-55.768-23.559-82.628 0-35.282 12.633-69.767 37.9-103.46l139.99-241.04c10.243-6.1454 19.12-9.2183 26.632-9.2188 17.072 5.01e-4 28.225 11.723 33.461 35.168-2.3e-4 9.5607-10.812 31.413-32.437 65.556z"/>
<path d="m618.72 37.622c42.338 5.02e-4 78.189 18.666 107.55 55.996 16.844 22.991 25.266 48.257 25.266 75.799v6.4873c-3e-4 37.103-13.43 67.833-40.29 92.188 40.745 29.591 61.117 70.792 61.117 123.6-3.2e-4 52.354-23.901 96.172-71.702 131.45-27.088 17.527-55.313 26.291-84.676 26.291h-6.4873c-50.305-1e-5 -93.668-24.811-130.09-74.433-15.706-28.453-23.559-56.223-23.559-83.311 0-54.63 21.852-97.309 65.556-128.04-14.113-10.926-24.697-30.501-31.754-58.727-2.7315-7.056-4.0973-16.73-4.0972-29.022v-6.4873c-3e-5 -46.89 22.421-84.676 67.263-113.36 22.307-12.291 44.273-18.437 65.897-18.438zm-62.14 137.6c-1e-4 27.315 16.616 46.55 49.85 57.703l12.633 1.3658c28.908 3e-4 48.712-15.478 59.41-46.436l2.3901-16.389c-2.2e-4 -30.274-16.275-50.305-48.826-60.093l-15.023-1.3658c-27.998 4.3e-4 -47.46 15.024-58.386 45.07zm-29.705 216.13c-7e-5 40.29 21.51 68.288 64.532 83.994 5.2352 2.0487 13.43 3.073 24.583 3.0729 38.013 6e-5 65.328-21.169 81.945-63.507l2.3901-17.413v-12.292c-2.5e-4 -32.323-19.007-57.475-57.02-75.458-10.471-3.1865-20.031-4.7799-28.681-4.7801-41.428 2.4e-4 -69.54 21.169-84.335 63.507z"/>
</g>
<g transform="matrix(.42788 -.0076147 .0076149 .42789 -79.578 252.78)">
<path d="m202.85 386.91v11.95c-7e-5 31.185 17.982 55.882 53.947 74.092 10.243 2.9592 20.714 4.894 31.412 5.8044 38.468 6e-5 65.897-20.259 82.286-60.776l3.4144-22.193v-4.4387c-2.5e-4 -40.289-21.738-67.832-65.215-82.628l-22.535-2.3901c-37.331 2.3e-4 -64.418 20.6-81.262 61.8zm78.189-151.26h12.975c50.533 3e-4 93.326 25.153 128.38 75.458 15.706 27.77 23.559 54.858 23.559 81.262-3.2e-4 52.126-23.787 95.716-71.36 130.77-27.088 17.527-55.199 26.291-84.335 26.291h-6.4873c-50.078-1e-5 -93.212-24.811-129.4-74.433-15.706-28.225-23.559-55.768-23.559-82.628 0-35.282 12.633-69.767 37.9-103.46l139.99-241.04c10.243-6.1454 19.12-9.2183 26.632-9.2188 17.072 5.01e-4 28.225 11.723 33.461 35.168-2.3e-4 9.5607-10.812 31.413-32.437 65.556z"/>
<path d="m618.72 37.622c42.338 5.02e-4 78.189 18.666 107.55 55.996 16.844 22.991 25.266 48.257 25.266 75.799v6.4873c-3e-4 37.103-13.43 67.833-40.29 92.188 40.745 29.591 61.117 70.792 61.117 123.6-3.2e-4 52.354-23.901 96.172-71.702 131.45-27.088 17.527-55.313 26.291-84.676 26.291h-6.4873c-50.305-1e-5 -93.668-24.811-130.09-74.433-15.706-28.453-23.559-56.223-23.559-83.311 0-54.63 21.852-97.309 65.556-128.04-14.113-10.926-24.697-30.501-31.754-58.727-2.7315-7.056-4.0973-16.73-4.0972-29.022v-6.4873c-3e-5 -46.89 22.421-84.676 67.263-113.36 22.307-12.291 44.273-18.437 65.897-18.438zm-62.14 137.6c-1e-4 27.315 16.616 46.55 49.85 57.703l12.633 1.3658c28.908 3e-4 48.712-15.478 59.41-46.436l2.3901-16.389c-2.2e-4 -30.274-16.275-50.305-48.826-60.093l-15.023-1.3658c-27.998 4.3e-4 -47.46 15.024-58.386 45.07zm-29.705 216.13c-7e-5 40.29 21.51 68.288 64.532 83.994 5.2352 2.0487 13.43 3.073 24.583 3.0729 38.013 6e-5 65.328-21.169 81.945-63.507l2.3901-17.413v-12.292c-2.5e-4 -32.323-19.007-57.475-57.02-75.458-10.471-3.1865-20.031-4.7799-28.681-4.7801-41.428 2.4e-4 -69.54 21.169-84.335 63.507z"/>
</g>
<g transform="matrix(1.0334 .0051146 .00095663 1.0428 589.08 33.031)" opacity=".61479">
<path d="m202.85 386.91v11.95c-7e-5 31.185 17.982 55.882 53.947 74.092 10.243 2.9592 20.714 4.894 31.412 5.8044 38.468 6e-5 65.897-20.259 82.286-60.776l3.4144-22.193v-4.4387c-2.5e-4 -40.289-21.738-67.832-65.215-82.628l-22.535-2.3901c-37.331 2.3e-4 -64.418 20.6-81.262 61.8zm78.189-151.26h12.975c50.533 3e-4 93.326 25.153 128.38 75.458 15.706 27.77 23.559 54.858 23.559 81.262-3.2e-4 52.126-23.787 95.716-71.36 130.77-27.088 17.527-55.199 26.291-84.335 26.291h-6.4873c-50.078-1e-5 -93.212-24.811-129.4-74.433-15.706-28.225-23.559-55.768-23.559-82.628 0-35.282 12.633-69.767 37.9-103.46l139.99-241.04c10.243-6.1454 19.12-9.2183 26.632-9.2188 17.072 5.01e-4 28.225 11.723 33.461 35.168-2.3e-4 9.5607-10.812 31.413-32.437 65.556z"/>
<path d="m618.72 37.622c42.338 5.02e-4 78.189 18.666 107.55 55.996 16.844 22.991 25.266 48.257 25.266 75.799v6.4873c-3e-4 37.103-13.43 67.833-40.29 92.188 40.745 29.591 61.117 70.792 61.117 123.6-3.2e-4 52.354-23.901 96.172-71.702 131.45-27.088 17.527-55.313 26.291-84.676 26.291h-6.4873c-50.305-1e-5 -93.668-24.811-130.09-74.433-15.706-28.453-23.559-56.223-23.559-83.311 0-54.63 21.852-97.309 65.556-128.04-14.113-10.926-24.697-30.501-31.754-58.727-2.7315-7.056-4.0973-16.73-4.0972-29.022v-6.4873c-3e-5 -46.89 22.421-84.676 67.263-113.36 22.307-12.291 44.273-18.437 65.897-18.438zm-62.14 137.6c-1e-4 27.315 16.616 46.55 49.85 57.703l12.633 1.3658c28.908 3e-4 48.712-15.478 59.41-46.436l2.3901-16.389c-2.2e-4 -30.274-16.275-50.305-48.826-60.093l-15.023-1.3658c-27.998 4.3e-4 -47.46 15.024-58.386 45.07zm-29.705 216.13c-7e-5 40.29 21.51 68.288 64.532 83.994 5.2352 2.0487 13.43 3.073 24.583 3.0729 38.013 6e-5 65.328-21.169 81.945-63.507l2.3901-17.413v-12.292c-2.5e-4 -32.323-19.007-57.475-57.02-75.458-10.471-3.1865-20.031-4.7799-28.681-4.7801-41.428 2.4e-4 -69.54 21.169-84.335 63.507z"/>
</g>
<g transform="matrix(.69815 -.048471 .048472 .69816 1924.4 723.79)">
<path d="m202.85 386.91v11.95c-7e-5 31.185 17.982 55.882 53.947 74.092 10.243 2.9592 20.714 4.894 31.412 5.8044 38.468 6e-5 65.897-20.259 82.286-60.776l3.4144-22.193v-4.4387c-2.5e-4 -40.289-21.738-67.832-65.215-82.628l-22.535-2.3901c-37.331 2.3e-4 -64.418 20.6-81.262 61.8zm78.189-151.26h12.975c50.533 3e-4 93.326 25.153 128.38 75.458 15.706 27.77 23.559 54.858 23.559 81.262-3.2e-4 52.126-23.787 95.716-71.36 130.77-27.088 17.527-55.199 26.291-84.335 26.291h-6.4873c-50.078-1e-5 -93.212-24.811-129.4-74.433-15.706-28.225-23.559-55.768-23.559-82.628 0-35.282 12.633-69.767 37.9-103.46l139.99-241.04c10.243-6.1454 19.12-9.2183 26.632-9.2188 17.072 5.01e-4 28.225 11.723 33.461 35.168-2.3e-4 9.5607-10.812 31.413-32.437 65.556z"/>
<path d="m618.72 37.622c42.338 5.02e-4 78.189 18.666 107.55 55.996 16.844 22.991 25.266 48.257 25.266 75.799v6.4873c-3e-4 37.103-13.43 67.833-40.29 92.188 40.745 29.591 61.117 70.792 61.117 123.6-3.2e-4 52.354-23.901 96.172-71.702 131.45-27.088 17.527-55.313 26.291-84.676 26.291h-6.4873c-50.305-1e-5 -93.668-24.811-130.09-74.433-15.706-28.453-23.559-56.223-23.559-83.311 0-54.63 21.852-97.309 65.556-128.04-14.113-10.926-24.697-30.501-31.754-58.727-2.7315-7.056-4.0973-16.73-4.0972-29.022v-6.4873c-3e-5 -46.89 22.421-84.676 67.263-113.36 22.307-12.291 44.273-18.437 65.897-18.438zm-62.14 137.6c-1e-4 27.315 16.616 46.55 49.85 57.703l12.633 1.3658c28.908 3e-4 48.712-15.478 59.41-46.436l2.3901-16.389c-2.2e-4 -30.274-16.275-50.305-48.826-60.093l-15.023-1.3658c-27.998 4.3e-4 -47.46 15.024-58.386 45.07zm-29.705 216.13c-7e-5 40.29 21.51 68.288 64.532 83.994 5.2352 2.0487 13.43 3.073 24.583 3.0729 38.013 6e-5 65.328-21.169 81.945-63.507l2.3901-17.413v-12.292c-2.5e-4 -32.323-19.007-57.475-57.02-75.458-10.471-3.1865-20.031-4.7799-28.681-4.7801-41.428 2.4e-4 -69.54 21.169-84.335 63.507z"/>
</g>
</g>
</svg>
